<?xml version="1.0" encoding="UTF-8"?>
<svg xmlns="http://www.w3.org/2000/svg" width="1440" height="900" viewBox="0 0 1440 900" role="img" aria-label="MCK-001 Pedidos">
  <title>MCK-001 — Pedidos (v1.1)</title>
  <defs><style type="text/css"><![CDATA[
.bg{fill:#F4F6F8}.surface{fill:#FFFFFF}.sidebar{fill:#1B2A41}.accent{fill:#1F4E79}
.text{fill:#1A2332;font-family:'Segoe UI',Calibri,Arial,sans-serif}
.muted{fill:#5B6B7C;font-family:'Segoe UI',Calibri,Arial,sans-serif}
.side-text{fill:#E8EEF4;font-family:'Segoe UI',Calibri,Arial,sans-serif}
.side-muted{fill:#9AA8B8;font-family:'Segoe UI',Calibri,Arial,sans-serif}
.mono{font-family:'Cascadia Mono',Consolas,monospace}
.border{stroke:#D5DCE5;stroke-width:1;fill:none}.hair{stroke:#E6EBF1;stroke-width:1}
.row-focus{fill:#E8F1F8}.row-alt{fill:#FAFBFC}.danger{fill:#B42318}.warn{fill:#B54708}.white{fill:#FFFFFF}
.badge-conf{fill:#E8F5EE}.badge-conf-t{fill:#067647}.badge-draft{fill:#EEF2F6}.badge-draft-t{fill:#5B6B7C}
.badge-open{fill:#E8F1F8}.badge-open-t{fill:#1F4E79}.badge-part{fill:#FEF4E6}.badge-part-t{fill:#B54708}
.badge-over{fill:#FCEBEA}.badge-over-t{fill:#B42318}.badge-att{fill:#FEF4E6}.badge-att-t{fill:#B54708}
.badge-today{fill:#FEF4E6}.badge-today-t{fill:#B54708}.badge-ok{fill:#E8F5EE}.badge-ok-t{fill:#067647}
.kpi-box{fill:#FFFFFF;stroke:#D5DCE5;stroke-width:1}
.drawer-shade{fill:#1A2332;fill-opacity:.18}.drawer{fill:#FFFFFF;stroke:#D5DCE5;stroke-width:1}
.btn-ghost{fill:#FFFFFF;stroke:#818C9C;stroke-width:1}.input{fill:#FFFFFF;stroke:#818C9C;stroke-width:1}
.filter-chip{fill:#FFFFFF;stroke:#818C9C;stroke-width:1}.filter-chip-on{fill:#E8F1F8;stroke:#1F4E79;stroke-width:1}
.close-hit{fill:#FFFFFF;stroke:#818C9C;stroke-width:1}.panel{fill:#FFFFFF;stroke:#D5DCE5;stroke-width:1}
.banner{fill:#E8F1F8;stroke:#1F4E79;stroke-width:1}.okbox{fill:#E8F5EE;stroke:#067647;stroke-width:1}
.warnbox{fill:#FEF4E6;stroke:#B54708;stroke-width:1}.errbox{fill:#FCEBEA;stroke:#B42318;stroke-width:1}
]]></style></defs>
  <rect class="bg" width="1440" height="900"/>
  
  <rect class="sidebar" x="0" y="0" width="220" height="900"/>
  <text class="side-text" x="24" y="36" font-size="15" font-weight="700">Epic Controle</text>
  <text class="side-muted" x="24" y="54" font-size="11">V2 · Order-to-Pay</text>
  <line x1="24" y1="68" x2="196" y2="68" stroke="#2F4158" stroke-width="1"/>
  <text class="side-muted" x="24" y="96" font-size="11" font-weight="600" letter-spacing=".06em">COMPRAS</text>
  <rect x="12" y="110" width="196" height="28" rx="4" fill="#243447"/><text class="side-text" x="36" y="124" font-size="12.5">Pedidos</text>
  <text class="side-muted" x="36" y="152" font-size="12.5">Faturas</text>
  <text class="side-muted" x="24" y="192" font-size="11" font-weight="600" letter-spacing=".06em">FINANCEIRO</text>
  <text class="side-muted" x="36" y="220" font-size="12.5">Contas a pagar</text>
  <text class="side-muted" x="36" y="248" font-size="12.5">Pagamentos</text>
  <rect x="16" y="768" width="188" height="52" rx="6" fill="#243447"/>
  <text class="side-muted" x="28" y="788" font-size="10">EUR / BRL</text>
  <text class="side-text mono" x="28" y="808" font-size="13" font-weight="600">6,2180</text>
  <text class="side-muted" x="118" y="808" font-size="10">desatualizado</text>
  <text class="side-text" x="28" y="848" font-size="12.5" font-weight="600">Admin</text>
  <text class="side-muted" x="28" y="870" font-size="12">Sair</text>

  <text class="muted" x="244" y="28" font-size="12">Compras  /  Pedidos</text>
  <text class="text" x="244" y="56" font-size="22" font-weight="700">Pedidos</text>
  <text class="muted" x="244" y="76" font-size="12">Fila operacional · Heroes</text>
  <rect class="accent" x="1228" y="28" width="172" height="36" rx="5"/>
  <text class="white" x="1314.0" y="51" font-size="13" font-weight="600" text-anchor="middle">Nova ordem</text>
  <rect class="surface" x="244" y="92" width="1156" height="52" rx="6"/><rect class="border" x="244" y="92" width="1156" height="52" rx="6"/>
  <rect class="input" x="256" y="104" width="240" height="28" rx="4"/><text class="muted" x="268" y="123" font-size="12">Buscar código, fornecedor…</text>
  <rect class="filter-chip-on" x="512" y="104" width="72" height="28" rx="14"/><text class="text" x="548" y="123" font-size="11.5" text-anchor="middle" font-weight="600">Todos</text>
  <rect class="filter-chip" x="592" y="104" width="100" height="28" rx="14"/><text class="muted" x="642" y="123" font-size="11.5" text-anchor="middle">Confirmados</text>
  <rect class="filter-chip" x="700" y="104" width="92" height="28" rx="14"/><text class="muted" x="746" y="123" font-size="11.5" text-anchor="middle">Rascunhos</text>
  <rect class="filter-chip" x="800" y="104" width="108" height="28" rx="14"/><text class="muted" x="854" y="123" font-size="11.5" text-anchor="middle">Com exceção</text>
  <rect class="input" x="928" y="104" width="220" height="28" rx="4"/><text class="muted" x="940" y="123" font-size="11">Ordenar por: Atualização recente</text>
  <text class="muted" x="1388" y="123" font-size="11" text-anchor="end">14 pedidos</text><rect class="surface" x="244" y="160" width="1156" height="700" rx="6"/><rect class="border" x="244" y="160" width="1156" height="700" rx="6"/><rect fill="#F8FAFC" x="245" y="161" width="1154" height="36"/><rect fill="#EEF3F8" x="245" y="161" width="128" height="36"/><text class="muted" x="256" y="184" font-size="11" font-weight="600">Código</text><text class="muted" x="380" y="184" font-size="11" font-weight="600">Data</text><text class="muted" x="480" y="184" font-size="11" font-weight="600">Fornecedor</text><text class="muted" x="580" y="184" font-size="11" font-weight="600">Status</text><text class="muted" x="688" y="184" font-size="11" font-weight="600">Moeda</text><text class="muted" x="760" y="184" font-size="11" font-weight="600">Subtotal precificado</text><text class="muted" x="940" y="184" font-size="11" font-weight="600">Faturado</text><text class="muted" x="1040" y="184" font-size="11" font-weight="600">Saldo aberto</text><text class="muted" x="1160" y="184" font-size="11" font-weight="600">Próx. venc.</text><text class="muted" x="1270" y="184" font-size="11" font-weight="600">Exceção</text><line class="hair" x1="245" y1="197" x2="1399" y2="197"/><text class="text mono" x="256" y="223" font-size="12.5" font-weight="600">PO-2026-0175</text><text class="muted mono" x="380" y="223" font-size="12">02/04/2026</text><text class="text" x="480" y="223" font-size="12">Heroes</text><rect class="badge-conf" x="580" y="208" width="78" height="20" rx="4"/><text class="badge-conf-t" x="619.0" y="222" font-size="10.5" font-weight="600" text-anchor="middle">Confirmado</text><text class="muted" x="688" y="223" font-size="12">EUR</text><text class="text mono" x="910" y="223" font-size="12" text-anchor="end">4.200,00</text><text class="text mono" x="1010" y="223" font-size="12" text-anchor="end">4.200,00</text><text class="text mono" x="1135" y="223" font-size="12" text-anchor="end">0,00</text><text class="muted mono" x="1245" y="223" font-size="12" text-anchor="end">—</text><line class="hair" x1="245" y1="238" x2="1399" y2="238"/><rect class="row-alt" x="245" y="238" width="1154" height="40"/><text class="text mono" x="256" y="263" font-size="12.5" font-weight="600">PO-2026-0176</text><text class="muted mono" x="380" y="263" font-size="12">18/04/2026</text><text class="text" x="480" y="263" font-size="12">Heroes</text><rect class="badge-conf" x="580" y="248" width="78" height="20" rx="4"/><text class="badge-conf-t" x="619.0" y="262" font-size="10.5" font-weight="600" text-anchor="middle">Confirmado</text><text class="muted" x="688" y="263" font-size="12">EUR</text><text class="text mono" x="910" y="263" font-size="12" text-anchor="end">1.180,00</text><text class="text mono" x="1010" y="263" font-size="12" text-anchor="end">1.180,00</text><text class="text mono" x="1135" y="263" font-size="12" text-anchor="end">420,00</text><text class="muted mono" x="1245" y="263" font-size="12" text-anchor="end">15/08</text><line class="hair" x1="245" y1="278" x2="1399" y2="278"/><text class="text mono" x="256" y="303" font-size="12.5" font-weight="600">PO-2026-0177</text><text class="muted mono" x="380" y="303" font-size="12">28/04/2026</text><text class="text" x="480" y="303" font-size="12">Heroes</text><rect class="badge-draft" x="580" y="288" width="68" height="20" rx="4"/><text class="badge-draft-t" x="614.0" y="302" font-size="10.5" font-weight="600" text-anchor="middle">Rascunho</text><text class="muted" x="688" y="303" font-size="12">EUR</text><text class="text mono" x="910" y="303" font-size="12" text-anchor="end">—</text><text class="text mono" x="1010" y="303" font-size="12" text-anchor="end">—</text><text class="text mono" x="1135" y="303" font-size="12" text-anchor="end">—</text><text class="muted mono" x="1245" y="303" font-size="12" text-anchor="end">—</text><rect class="badge-att" x="1268" y="288" width="72" height="20" rx="4"/><text class="badge-att-t" x="1304.0" y="302" font-size="10.5" font-weight="600" text-anchor="middle">Sem preço</text><line class="hair" x1="245" y1="318" x2="1399" y2="318"/><rect class="row-alt" x="245" y="318" width="1154" height="40"/><text class="text mono" x="256" y="343" font-size="12.5" font-weight="600">PO-2026-0178</text><text class="muted mono" x="380" y="343" font-size="12">03/05/2026</text><text class="text" x="480" y="343" font-size="12">Heroes</text><rect class="badge-conf" x="580" y="328" width="78" height="20" rx="4"/><text class="badge-conf-t" x="619.0" y="342" font-size="10.5" font-weight="600" text-anchor="middle">Confirmado</text><text class="muted" x="688" y="343" font-size="12">EUR</text><text class="text mono" x="910" y="343" font-size="12" text-anchor="end">2.640,00</text><text class="text mono" x="1010" y="343" font-size="12" text-anchor="end">0,00</text><text class="text mono" x="1135" y="343" font-size="12" text-anchor="end">2.640,00</text><text class="muted mono" x="1245" y="343" font-size="12" text-anchor="end">—</text><line class="hair" x1="245" y1="358" x2="1399" y2="358"/><text class="text mono" x="256" y="383" font-size="12.5" font-weight="600">PO-2026-0179</text><text class="muted mono" x="380" y="383" font-size="12">08/05/2026</text><text class="text" x="480" y="383" font-size="12">Heroes</text><rect class="badge-conf" x="580" y="368" width="78" height="20" rx="4"/><text class="badge-conf-t" x="619.0" y="382" font-size="10.5" font-weight="600" text-anchor="middle">Confirmado</text><text class="muted" x="688" y="383" font-size="12">EUR</text><text class="text mono" x="910" y="383" font-size="12" text-anchor="end">890,00</text><text class="text mono" x="1010" y="383" font-size="12" text-anchor="end">890,00</text><text class="text mono" x="1135" y="383" font-size="12" text-anchor="end">890,00</text><text class="muted mono" x="1245" y="383" font-size="12" text-anchor="end">02/08</text><line class="hair" x1="245" y1="398" x2="1399" y2="398"/><rect class="row-alt" x="245" y="398" width="1154" height="40"/><text class="text mono" x="256" y="423" font-size="12.5" font-weight="600">PO-2026-0180</text><text class="muted mono" x="380" y="423" font-size="12">10/05/2026</text><text class="text" x="480" y="423" font-size="12">Heroes</text><rect class="badge-draft" x="580" y="408" width="72" height="20" rx="4"/><text class="badge-draft-t" x="616.0" y="422" font-size="10.5" font-weight="600" text-anchor="middle">Cancelado</text><text class="muted" x="688" y="423" font-size="12">EUR</text><text class="text mono" x="910" y="423" font-size="12" text-anchor="end">610,00</text><text class="text mono" x="1010" y="423" font-size="12" text-anchor="end">—</text><text class="text mono" x="1135" y="423" font-size="12" text-anchor="end">—</text><text class="muted mono" x="1245" y="423" font-size="12" text-anchor="end">—</text><line class="hair" x1="245" y1="438" x2="1399" y2="438"/><rect class="row-focus" x="245" y="438" width="1154" height="40"/><rect class="accent" x="245" y="438" width="3" height="40"/><text class="text mono" x="256" y="463" font-size="12.5" font-weight="600">PO-2026-0181</text><text class="muted mono" x="380" y="463" font-size="12">12/05/2026</text><text class="text" x="480" y="463" font-size="12">Heroes</text><rect class="badge-conf" x="580" y="448" width="78" height="20" rx="4"/><text class="badge-conf-t" x="619.0" y="462" font-size="10.5" font-weight="600" text-anchor="middle">Confirmado</text><text class="muted" x="688" y="463" font-size="12">EUR</text><text class="text mono" x="910" y="463" font-size="12" text-anchor="end">3.050,00</text><text class="text mono" x="1010" y="463" font-size="12" text-anchor="end">3.050,00</text><text class="text mono" x="1135" y="463" font-size="12" text-anchor="end">2.450,00</text><text class="danger mono" x="1245" y="463" font-size="12" text-anchor="end">15/06</text><rect class="badge-att" x="1268" y="448" width="78" height="20" rx="4"/><text class="badge-att-t" x="1307.0" y="462" font-size="10.5" font-weight="600" text-anchor="middle">1 sem preço</text><text fill="#1F4E79" x="1388" y="463" font-size="16" font-weight="600" text-anchor="middle">›</text><line class="hair" x1="245" y1="478" x2="1399" y2="478"/><rect class="row-alt" x="245" y="478" width="1154" height="40"/><text class="text mono" x="256" y="503" font-size="12.5" font-weight="600">PO-2026-0182</text><text class="muted mono" x="380" y="503" font-size="12">20/05/2026</text><text class="text" x="480" y="503" font-size="12">Heroes</text><rect class="badge-conf" x="580" y="488" width="78" height="20" rx="4"/><text class="badge-conf-t" x="619.0" y="502" font-size="10.5" font-weight="600" text-anchor="middle">Confirmado</text><text class="muted" x="688" y="503" font-size="12">EUR</text><text class="text mono" x="910" y="503" font-size="12" text-anchor="end">1.450,00</text><text class="text mono" x="1010" y="503" font-size="12" text-anchor="end">0,00</text><text class="text mono" x="1135" y="503" font-size="12" text-anchor="end">1.450,00</text><text class="muted mono" x="1245" y="503" font-size="12" text-anchor="end">—</text><line class="hair" x1="245" y1="518" x2="1399" y2="518"/><text class="text mono" x="256" y="543" font-size="12.5" font-weight="600">PO-2026-0183</text><text class="muted mono" x="380" y="543" font-size="12">01/06/2026</text><text class="text" x="480" y="543" font-size="12">Heroes</text><rect class="badge-conf" x="580" y="528" width="78" height="20" rx="4"/><text class="badge-conf-t" x="619.0" y="542" font-size="10.5" font-weight="600" text-anchor="middle">Confirmado</text><text class="muted" x="688" y="543" font-size="12">EUR</text><text class="text mono" x="910" y="543" font-size="12" text-anchor="end">3.980,00</text><text class="text mono" x="1010" y="543" font-size="12" text-anchor="end">1.200,00</text><text class="text mono" x="1135" y="543" font-size="12" text-anchor="end">2.780,00</text><text class="muted mono" x="1245" y="543" font-size="12" text-anchor="end">10/09</text><line class="hair" x1="245" y1="558" x2="1399" y2="558"/><rect class="row-alt" x="245" y="558" width="1154" height="40"/><text class="text mono" x="256" y="583" font-size="12.5" font-weight="600">PO-2026-0184</text><text class="muted mono" x="380" y="583" font-size="12">14/06/2026</text><text class="text" x="480" y="583" font-size="12">Heroes</text><rect class="badge-draft" x="580" y="568" width="68" height="20" rx="4"/><text class="badge-draft-t" x="614.0" y="582" font-size="10.5" font-weight="600" text-anchor="middle">Rascunho</text><text class="muted" x="688" y="583" font-size="12">EUR</text><text class="text mono" x="910" y="583" font-size="12" text-anchor="end">720,00</text><text class="text mono" x="1010" y="583" font-size="12" text-anchor="end">—</text><text class="text mono" x="1135" y="583" font-size="12" text-anchor="end">—</text><text class="muted mono" x="1245" y="583" font-size="12" text-anchor="end">—</text><line class="hair" x1="245" y1="598" x2="1399" y2="598"/><text class="text mono" x="256" y="623" font-size="12.5" font-weight="600">PO-2026-0185</text><text class="muted mono" x="380" y="623" font-size="12">22/06/2026</text><text class="text" x="480" y="623" font-size="12">Heroes</text><rect class="badge-conf" x="580" y="608" width="78" height="20" rx="4"/><text class="badge-conf-t" x="619.0" y="622" font-size="10.5" font-weight="600" text-anchor="middle">Confirmado</text><text class="muted" x="688" y="623" font-size="12">EUR</text><text class="text mono" x="910" y="623" font-size="12" text-anchor="end">2.100,00</text><text class="text mono" x="1010" y="623" font-size="12" text-anchor="end">2.100,00</text><text class="text mono" x="1135" y="623" font-size="12" text-anchor="end">700,00</text><text class="muted mono" x="1245" y="623" font-size="12" text-anchor="end">28/07</text><line class="hair" x1="245" y1="638" x2="1399" y2="638"/><rect class="row-alt" x="245" y="638" width="1154" height="40"/><text class="text mono" x="256" y="663" font-size="12.5" font-weight="600">PO-2026-0186</text><text class="muted mono" x="380" y="663" font-size="12">01/07/2026</text><text class="text" x="480" y="663" font-size="12">Heroes</text><rect class="badge-conf" x="580" y="648" width="78" height="20" rx="4"/><text class="badge-conf-t" x="619.0" y="662" font-size="10.5" font-weight="600" text-anchor="middle">Confirmado</text><text class="muted" x="688" y="663" font-size="12">EUR</text><text class="text mono" x="910" y="663" font-size="12" text-anchor="end">5.500,00</text><text class="text mono" x="1010" y="663" font-size="12" text-anchor="end">0,00</text><text class="text mono" x="1135" y="663" font-size="12" text-anchor="end">5.500,00</text><text class="muted mono" x="1245" y="663" font-size="12" text-anchor="end">—</text><line class="hair" x1="245" y1="678" x2="1399" y2="678"/><text class="text mono" x="256" y="703" font-size="12.5" font-weight="600">PO-2026-0187</text><text class="muted mono" x="380" y="703" font-size="12">08/07/2026</text><text class="text" x="480" y="703" font-size="12">Heroes</text><rect class="badge-conf" x="580" y="688" width="78" height="20" rx="4"/><text class="badge-conf-t" x="619.0" y="702" font-size="10.5" font-weight="600" text-anchor="middle">Confirmado</text><text class="muted" x="688" y="703" font-size="12">EUR</text><text class="text mono" x="910" y="703" font-size="12" text-anchor="end">960,00</text><text class="text mono" x="1010" y="703" font-size="12" text-anchor="end">960,00</text><text class="text mono" x="1135" y="703" font-size="12" text-anchor="end">0,00</text><text class="muted mono" x="1245" y="703" font-size="12" text-anchor="end">—</text><line class="hair" x1="245" y1="718" x2="1399" y2="718"/><rect class="row-alt" x="245" y="718" width="1154" height="40"/><text class="text mono" x="256" y="743" font-size="12.5" font-weight="600">PO-2026-0188</text><text class="muted mono" x="380" y="743" font-size="12">15/07/2026</text><text class="text" x="480" y="743" font-size="12">Heroes</text><rect class="badge-conf" x="580" y="728" width="78" height="20" rx="4"/><text class="badge-conf-t" x="619.0" y="742" font-size="10.5" font-weight="600" text-anchor="middle">Confirmado</text><text class="muted" x="688" y="743" font-size="12">EUR</text><text class="text mono" x="910" y="743" font-size="12" text-anchor="end">1.320,00</text><text class="text mono" x="1010" y="743" font-size="12" text-anchor="end">440,00</text><text class="text mono" x="1135" y="743" font-size="12" text-anchor="end">880,00</text><text class="muted mono" x="1245" y="743" font-size="12" text-anchor="end">20/08</text><line class="hair" x1="245" y1="758" x2="1399" y2="758"/><rect class="btn-ghost" x="1280" y="858" width="100" height="28" rx="4"/><text class="muted" x="1330" y="877" font-size="11" text-anchor="middle">1 – 14 / 14</text>
</svg>
